<svg viewBox="0 0 150 15" xmlns="http://www.w3.org/2000/svg" fill-rule="evenodd" clip-rule="evenodd" stroke-linejoin="round" stroke-miterlimit="1.41421">
  <path d="M148.83818 6.44998c-.31663.01472-.36042.0089-.46191.00957-.14216-.0019-.20229-.00466-.26832-.00681-.22019-.00907-.31455-.01545-.44315-.0225l-.2883-.0176.0782-.04887c.1451.0092.29456.01833.48311.02802.07212.00337.13972.00705.28483.01104.04432.00092.07751.00202.15936.00239.07873-.0016.14807.00466.43237-.01355.5217.10037 1.07972-.44932.38059-.49506-.2777-.07879-.31576-.07535-.40509-.09485-.1286-.02263-.1849-.03017-.24017-.0382l-.12894-.01748-.18804-.02311-.33644-.0379-.01025-.05506.23738.02563c.11765.01343.22766.02551.40822.049a9.09717 9.09717 0 0 1 .18126.02538 7.14914 7.14914 0 0 1 .16509.0268c.11053.02384.14615.01643.49684.11557.96294.10528-.13537.73364-.53664.57759zm-4.09554-1.09423l-1.43024-.1013-.44123-.03856c-5.60885-.48175-11.23472-.8947-16.89014-1.2645-11.30893-.73468-22.72091-1.28615-34.22326-1.5991 12.67156.3341 25.23694.95425 37.67997 1.79562 3.11141.21343 6.215.44036 9.31147.68188 1.54945.12361 3.09734.2509 4.64348.38255l2.32626.20681.19898.01852-1.1753-.08192zm-.96554.80777c-1.54632-.1111-3.0942-.21786-4.64365-.32093-3.08813-.21147-6.18286-.40811-9.28297-.59138-12.38621-.73958-24.85931-1.284-37.371-1.55127-6.2548-.13226-12.5188-.19308-18.77273-.15764-6.25288.0352-12.49465.17664-18.70722.40333 4.56163-.20762 9.14481-.37004 13.7452-.47863 5.682-.07652 11.37687-.06518 17.06583.01042 5.68983.07604 11.37445.21743 17.04568.41161 11.34577.38868 22.63385.98233 33.85988 1.7289 1.83585.12165 3.66752.24815 5.50406.37758l2.64445.23208.52083.04813-1.60836-.1122zM54.34455 4.81673c4.8713-.12416 9.74714-.19651 14.6141-.20761 4.86245-.0114 9.73428.04286 14.60299.14642-5.22027-.08584-10.43393-.1146-15.637-.06739-5.20792.04648-10.41916.16212-15.6203.33564-10.40266.3484-20.76568.92322-31.01662 1.68175-2.56869.18695-5.13286.3842-7.70068.58728-2.57598.20154-5.12294.41535-7.79208.60524-.67428.04648-1.3522.09148-2.10416.12576-.38093.01618-.77247.03188-1.26792.0309-.25025-.00202-.5316-.00564-.88282-.03679-.17257-.0157-.3653-.04035-.5429-.07995-.18021-.04109-.3248-.09222-.41482-.15991l-.0311-.0263-.00644-.0065c-.12112-.04538.04953-.24815.13312-.26188.08446-.04722.25877-.10577.2871-.11246.0563-.01729.13884-.03942.18385-.05021l.11036-.02551a4.71723 4.71723 0 0 1 .09175-.01925l.07351-.01454c.17257-.03255.28084-.0493.38702-.06622.20697-.03219.37885-.05628.55176-.08007.34131-.04673.66594-.0883.98952-.12852.64595-.08038 1.28287-.15494 1.92082-.2279 2.54766-.28935 5.0981-.54884 7.66314-.7952 10.2572-.97767 20.6781-1.73467 31.20586-2.28215-8.06492.42994-16.06241.98785-23.96971 1.6677-3.95322.3411-7.88315.71139-11.78388 1.1263-.97579.10406-1.9488.21105-2.92164.32301-.97683.113-1.93577.22607-2.94458.36299l-.39466.05604c-.1399.02097-.27336.0406-.47165.07566-.04518.00791-.11104.02036-.17986.03452-.03476.00693-.09558.0206-.1399.03109-.01529.00337-.06708.01656-.10774.0279-.04449.01275-.07386.02085-.12547.03826-.08255.0282-.15432.0596-.20715.09062-.07734.03857-.15102.13545-.0888.18959l.02432.02385c.03528.03005.06396.04599.10532.06573.16075.0778.44297.12692.68175.15102.48954.04654.8538.0401 1.18085.03759.32689-.0049.61815-.0162.90055-.029 1.11603-.05329 2.1158-.12895 3.126-.20419 2.00598-.15316 3.9699-.3165 5.93887-.47519 1.96704-.15923 3.93097-.31565 5.89715-.46679 3.93236-.30253 7.87376-.58335 11.82767-.8364 7.90556-.5061 15.86726-.89937 23.8545-1.15493zm95.39244 1.08466c-.38736-.25893-1.04322-.44527-.72155-.24072-.1783-.02888-.24503-.03691-.32098-.04727-.25841-.03366-.38701-.0471-.53994-.06408-.28726-.03139-.54185-.05714-.79749-.08265-.5078-.0504-1.00064-.09688-1.49297-.14237a786.6521 786.6521 0 0 0-2.93554-.25955c-1.94863-.16359-3.89952-.3208-5.85336-.47231-7.80772-.59684-15.65872-1.09288-23.5582-1.49732-7.89878-.40284-15.84466-.71143-23.8319-.89912-3.99354-.09338-7.99732-.1563-12.00945-.18247-4.00987-.02674-8.0406-.01429-12.05255.04022-9.23187.12612-18.4083.45336-27.50411.93107 6.46629-.29793 12.96438-.51879 19.48472-.64688-2.16116.09112-4.31607.19253-6.4649.30345 5.8624-.16395 11.74495-.25721 17.63341-.26408 5.8949-.00693 11.76859.07854 17.61795.23079-5.29951-.09878-10.61102-.1425-15.9333-.11307-5.3195.03005-10.62735.13244-15.91504.29438-3.99701.12263-7.99784.28156-11.7599.45839-3.76292.17665-7.28776.37065-10.34043.55429-6.10517.36764-10.3248.68679-10.81643.71573 5.90289-.36354 11.83202-.66594 17.77956-.90213-5.97987.35465-11.92012.77619-17.81466 1.25892-5.89438.48378-11.74548 1.02568-17.5368 1.64171 8.26443-.81095 16.63017-1.47849 25.06299-2.0264-4.28966.30909-8.55707.65295-12.79808 1.03518-2.14152.19315-4.27645.39604-6.40529.61174-2.13214.21712-4.2417.44092-6.39191.70163-.54846.0677-1.06755.13152-1.70864.22466l-.27162.0417c-.10236.01649-.20975.03366-.3931.06885-.0987.02048-.1929.03495-.44853.10289-.12026-.08946-.35174.08547-.51388.262-.1677.17702-.24347.35293-.13346.27028.0259.02685.09714.07664.14702.09847.05909.02967.13225.05733.2127.08247.16267.04985.3561.08706.54204.11282.18612.02575.36355.04145.52482.05224.32376.02109.58652.02501.81904.02624.46313.00092.82339-.01165 1.16626-.02483.33975-.01374.65308-.03005.9579-.0474.60615-.03501 1.17633-.07376 1.738-.1138 2.2338-.1615 4.3609-.33711 6.50452-.50622 4.27263-.3403 8.52614-.66429 12.79877-.95608 8.52927-.58802 17.1284-1.04684 25.7555-1.3498 8.63112-.30252 17.27265-.4463 25.91349-.38334 8.65248.05942 17.32303.29223 25.96283.6462 8.6405.35545 17.25509.83254 25.81234 1.4124-9.3464-.69335-18.77309-1.265-28.2446-1.68733-9.47048-.4205-18.99362-.69305-28.50841-.73977 6.0162-.00846 12.04803.07499 18.07065.22779 6.02332.15316 12.03951.37604 18.0385.65533-9.53565-.52063-19.13594-.90188-28.76317-1.07951 11.35672.05678 22.73255.39474 34.04426.91746 5.65664.26236 11.2992.57268 16.92056.928 5.61927.35649 11.22551.75387 16.77753 1.21263-3.80324-.33724-7.63933-.64357-11.4848-.92978-3.84634-.28573-7.70675-.54957-11.5776-.79195-7.7415-.48439-15.52577-.8844-23.338-1.18258-7.81173-.2975-15.65334-.4939-23.49808-.54945-7.8423-.05892-15.6867.0496-23.50693.29186a701.7015 701.7015 0 0 0-4.86193.16727c6.63365-.3007 13.3057-.50965 19.99565-.60402 6.68873-.09412 13.4011-.06683 20.10496.0455 7.86646.13207 15.7211.38463 23.55003.72548 7.82944.34165 15.63438.77073 23.40978 1.27842 1.94794.12527 3.89361.25611 5.8365.3934a802.8185 802.8185 0 0 1 2.93068.20559l1.4862.10393.7676.05211.40908.02612c.1465.00896.285.0176.49371.02802.05666.00276.12026.00577.21567.0092.12756.00098.1392.01318.67497.00337.68436-.03967 1.01003-.13918 1.11343-.2626.09888-.12386-.03563-.27225-.2261-.40132zM148.83818 12.69158c-.31663.01472-.36042.0089-.46191.00957-.14216-.0019-.20229-.00466-.26832-.00681-.22019-.00907-.31455-.01545-.44315-.0225l-.2883-.0176.0782-.04887c.1451.0092.29456.01833.48311.02802.07212.00337.13972.00705.28483.01104.04432.00092.07751.00202.15936.00239.07873-.0016.14807.00466.43237-.01355.5217.10037 1.07972-.44932.38059-.49506-.2777-.07879-.31576-.07535-.40509-.09485-.1286-.02263-.1849-.03017-.24017-.0382l-.12894-.01748-.18804-.02311-.33644-.0379-.01025-.05506.23738.02563c.11765.01343.22766.02551.40822.049a9.09717 9.09717 0 0 1 .18126.02538 7.14914 7.14914 0 0 1 .16509.0268c.11053.02384.14615.01643.49684.11557.96294.10528-.13537.73364-.53664.57759zm-4.09554-1.09423l-1.43024-.1013-.44123-.03856c-5.60885-.48175-11.23472-.8947-16.89014-1.2645-11.30893-.73468-22.72091-1.28615-34.22326-1.5991 12.67156.3341 25.23694.95425 37.67997 1.79562 3.11141.21343 6.215.44036 9.31147.68188 1.54945.12361 3.09734.2509 4.64348.38255l2.32626.20681.19898.01852-1.1753-.08192zm-.96554.80777c-1.54632-.1111-3.0942-.21786-4.64365-.32093-3.08813-.21147-6.18286-.40811-9.28297-.59138-12.38621-.73958-24.85931-1.284-37.371-1.55127-6.2548-.13226-12.5188-.19308-18.77273-.15764-6.25288.0352-12.49465.17664-18.70722.40333 4.56163-.20762 9.14481-.37004 13.7452-.47863 5.682-.07652 11.37687-.06518 17.06583.01042 5.68983.07604 11.37445.21743 17.04568.41161 11.34577.38868 22.63385.98233 33.85988 1.7289 1.83585.12165 3.66752.24815 5.50406.37758l2.64445.23208.52083.04813-1.60836-.1122zm-89.43255-1.34679c4.8713-.12416 9.74714-.19651 14.6141-.20761 4.86245-.0114 9.73428.04286 14.60299.14642-5.22027-.08584-10.43393-.1146-15.637-.06739-5.20792.04648-10.41916.16212-15.6203.33564-10.40266.3484-20.76568.92322-31.01662 1.68175-2.56869.18695-5.13286.3842-7.70068.58728-2.57598.20154-5.12294.41535-7.79208.60524-.67428.04648-1.3522.09148-2.10416.12576-.38093.01618-.77247.03188-1.26792.0309-.25025-.00202-.5316-.00564-.88282-.03679-.17257-.0157-.3653-.04035-.5429-.07995-.18021-.04109-.3248-.09222-.41482-.15991l-.0311-.0263-.00644-.0065c-.12112-.04538.04953-.24815.13312-.26188.08446-.04722.25877-.10577.2871-.11246.0563-.01729.13884-.03942.18385-.05021l.11036-.02551a4.71723 4.71723 0 0 1 .09175-.01925l.07351-.01454c.17257-.03255.28084-.0493.38702-.06622.20697-.03219.37885-.05628.55176-.08007.34131-.04673.66594-.0883.98952-.12852.64595-.08038 1.28287-.15494 1.92082-.2279 2.54766-.28935 5.0981-.54884 7.66314-.7952 10.2572-.97767 20.6781-1.73467 31.20586-2.28215-8.06492.42994-16.06241.98785-23.96971 1.6677-3.95322.3411-7.88315.71139-11.78388 1.1263-.97579.10406-1.9488.21105-2.92164.32301-.97683.113-1.93577.22607-2.94458.36299l-.39466.05604c-.1399.02097-.27336.0406-.47165.07566-.04518.00791-.11104.02036-.17986.03452-.03476.00693-.09558.0206-.1399.03109-.01529.00337-.06708.01656-.10774.0279-.04449.01275-.07386.02085-.12547.03826-.08255.0282-.15432.0596-.20715.09062-.07734.03857-.15102.13545-.0888.18959l.02432.02385c.03528.03005.06396.04599.10532.06573.16075.0778.44297.12692.68175.15102.48954.04654.8538.0401 1.18085.03759.32689-.0049.61815-.0162.90055-.029 1.11603-.05329 2.1158-.12895 3.126-.20419 2.00598-.15316 3.9699-.3165 5.93887-.47519 1.96704-.15923 3.93097-.31565 5.89715-.46679 3.93236-.30253 7.87376-.58335 11.82767-.8364 7.90556-.5061 15.86726-.89937 23.8545-1.15493zm95.39244 1.08466c-.38736-.25893-1.04322-.44527-.72155-.24072-.1783-.02888-.24503-.03691-.32098-.04727-.25841-.03366-.38701-.0471-.53994-.06408-.28726-.03139-.54185-.05714-.79749-.08265-.5078-.0504-1.00064-.09688-1.49297-.14237a786.6521 786.6521 0 0 0-2.93554-.25955c-1.94863-.16359-3.89952-.3208-5.85336-.47231-7.80772-.59684-15.65872-1.09288-23.5582-1.49732-7.89878-.40284-15.84466-.71143-23.8319-.89912-3.99354-.09338-7.99732-.1563-12.00945-.18247-4.00987-.02674-8.0406-.01429-12.05255.04022-9.23187.12612-18.4083.45336-27.50411.93107 6.46629-.29793 12.96438-.51879 19.48472-.64688-2.16116.09112-4.31607.19253-6.4649.30345 5.8624-.16395 11.74495-.25721 17.63341-.26408 5.8949-.00693 11.76859.07854 17.61795.23079-5.29951-.09878-10.61102-.1425-15.9333-.11307-5.3195.03005-10.62735.13244-15.91504.29438-3.99701.12263-7.99784.28156-11.7599.45839-3.76292.17665-7.28776.37065-10.34043.55429-6.10517.36764-10.3248.68679-10.81643.71573 5.90289-.36354 11.83202-.66594 17.77956-.90213-5.97987.35465-11.92012.77619-17.81466 1.25892-5.89438.48378-11.74548 1.02568-17.5368 1.64171 8.26443-.81095 16.63017-1.47849 25.06299-2.0264-4.28966.30909-8.55707.65295-12.79808 1.03518-2.14152.19315-4.27645.39604-6.40529.61174-2.13214.21712-4.2417.44092-6.39191.70163-.54846.0677-1.06755.13152-1.70864.22466l-.27162.0417c-.10236.01649-.20975.03366-.3931.06885-.0987.02048-.1929.03495-.44853.10289-.12026-.08946-.35174.08547-.51388.262-.1677.17702-.24347.35293-.13346.27028.0259.02685.09714.07664.14702.09847.05909.02967.13225.05733.2127.08247.16267.04985.3561.08706.54204.11282.18612.02575.36355.04145.52482.05224.32376.02109.58652.02501.81904.02624.46313.00092.82339-.01165 1.16626-.02483.33975-.01374.65308-.03005.9579-.0474.60615-.03501 1.17633-.07376 1.738-.1138 2.2338-.1615 4.3609-.33711 6.50452-.50622 4.27263-.3403 8.52614-.66429 12.79877-.95608 8.52927-.58802 17.1284-1.04684 25.7555-1.3498 8.63112-.30252 17.27265-.4463 25.91349-.38334 8.65248.05942 17.32303.29223 25.96283.6462 8.6405.35545 17.25509.83254 25.81234 1.4124-9.3464-.69335-18.77309-1.265-28.2446-1.68733-9.47048-.4205-18.99362-.69305-28.50841-.73977 6.0162-.00846 12.04803.07499 18.07065.22779 6.02332.15316 12.03951.37604 18.0385.65533-9.53565-.52063-19.13594-.90188-28.76317-1.07951 11.35672.05678 22.73255.39474 34.04426.91746 5.65664.26236 11.2992.57268 16.92056.928 5.61927.35649 11.22551.75387 16.77753 1.21263-3.80324-.33724-7.63933-.64357-11.4848-.92978-3.84634-.28573-7.70675-.54957-11.5776-.79195-7.7415-.48439-15.52577-.8844-23.338-1.18258-7.81173-.2975-15.65334-.4939-23.49808-.54945-7.8423-.05892-15.6867.0496-23.50693.29186a701.7015 701.7015 0 0 0-4.86193.16727c6.63365-.3007 13.3057-.50965 19.99565-.60402 6.68873-.09412 13.4011-.06683 20.10496.0455 7.86646.13207 15.7211.38463 23.55003.72548 7.82944.34165 15.63438.77073 23.40978 1.27842 1.94794.12527 3.89361.25611 5.8365.3934a802.8185 802.8185 0 0 1 2.93068.20559l1.4862.10393.7676.05211.40908.02612c.1465.00896.285.0176.49371.02802.05666.00276.12026.00577.21567.0092.12756.00098.1392.01318.67497.00337.68436-.03967 1.01003-.13918 1.11343-.2626.09888-.12386-.03563-.27225-.2261-.40132z" fill="#364150" fill-rule="nonzero"/>
</svg>
