<?xml version="1.0" encoding="utf-8"?>
<!-- Generator: Adobe Illustrator 19.0.0, SVG Export Plug-In . SVG Version: 6.00 Build 0)  -->
<svg version="1.1" id="Layer_1" xmlns="http://www.w3.org/2000/svg" xmlns:xlink="http://www.w3.org/1999/xlink" x="0px" y="0px"
	 viewBox="0 0 500 500" style="enable-background:new 0 0 500 500;" xml:space="preserve">
<style type="text/css">
	.st0{fill:#FF4A00;}
</style>
<g id="XMLID_1_">
	<path id="XMLID_2_" class="st0" d="M295.6,250.1c0,13.6-2.5,26.5-7,38.5c-12,4.5-25,7-38.5,7h-0.2c-13.6,0-26.5-2.5-38.5-7
		c-4.5-12-7-25-7-38.5v-0.2c0-13.6,2.5-26.5,7-38.5c12-4.5,25-7,38.5-7h0.2c13.6,0,26.6,2.5,38.5,7c4.5,12,7,25,7,38.5V250.1z
		 M430,219.6H323.4l75.3-75.3c-5.9-8.3-12.5-16.1-19.7-23.3v0c-7.2-7.2-15-13.8-23.3-19.7l-75.3,75.3V70c-9.9-1.7-20-2.5-30.3-2.5
		h-0.2c-10.3,0-20.5,0.9-30.3,2.5v106.5l-75.3-75.3c-8.3,5.9-16.1,12.5-23.3,19.7l0,0c-7.2,7.2-13.8,15-19.7,23.3l75.3,75.3H70
		c0,0-2.5,20-2.5,30.4v0.1c0,10.3,0.9,20.5,2.5,30.4h106.5l-75.3,75.3c11.8,16.6,26.4,31.2,43,43l75.3-75.3V430
		c9.9,1.7,20,2.5,30.3,2.5h0.3c10.3,0,20.4-0.9,30.3-2.5V323.4l75.3,75.3c8.3-5.9,16.1-12.5,23.3-19.7l0,0
		c7.2-7.2,13.8-15,19.7-23.3l-75.3-75.3H430c1.7-9.9,2.5-20,2.5-30.3v-0.3C432.5,239.5,431.6,229.4,430,219.6z"/>
</g>
</svg>
